<svg width="100" height="100" viewBox="0 0 100 100" fill="none" xmlns="http://www.w3.org/2000/svg">
<circle cx="50" cy="50" r="50" fill="url(#paint0_linear_223_23)"/>
<path d="M50 25.5333C45.3587 25.5333 40.9075 27.3946 37.6256 30.7078C34.3437 34.0209 32.5 38.5145 32.5 43.2V46.7333H36C36.9283 46.7333 37.8185 47.1056 38.4749 47.7682C39.1313 48.4309 39.5 49.3296 39.5 50.2667V60.8667C39.5 61.8038 39.1313 62.7025 38.4749 63.3651C37.8185 64.0277 36.9283 64.4 36 64.4H32.5C31.5717 64.4 30.6815 64.0277 30.0251 63.3651C29.3687 62.7025 29 61.8038 29 60.8667V43.2C29 40.416 29.5432 37.6592 30.5985 35.0871C31.6539 32.515 33.2007 30.1779 35.1508 28.2093C37.1008 26.2407 39.4158 24.6792 41.9636 23.6138C44.5115 22.5484 47.2422 22 50 22C52.7578 22 55.4885 22.5484 58.0364 23.6138C60.5842 24.6792 62.8992 26.2407 64.8492 28.2093C66.7993 30.1779 68.3461 32.515 69.4015 35.0871C70.4568 37.6592 71 40.416 71 43.2V64.4C71 66.7427 70.0781 68.9895 68.4372 70.6461C66.7962 72.3027 64.5706 73.2333 62.25 73.2333H54.781C54.4738 73.7705 54.032 74.2165 53.4999 74.5266C52.9679 74.8367 52.3644 75 51.75 75H48.25C47.3217 75 46.4315 74.6277 45.7751 73.9651C45.1187 73.3025 44.75 72.4038 44.75 71.4667C44.75 70.5296 45.1187 69.6309 45.7751 68.9682C46.4315 68.3056 47.3217 67.9333 48.25 67.9333H51.75C52.3644 67.9333 52.9679 68.0966 53.4999 68.4067C54.032 68.7168 54.4738 69.1629 54.781 69.7H62.25C63.6424 69.7 64.9777 69.1416 65.9623 68.1477C66.9469 67.1537 67.5 65.8056 67.5 64.4H64C63.0717 64.4 62.1815 64.0277 61.5251 63.3651C60.8687 62.7025 60.5 61.8038 60.5 60.8667V50.2667C60.5 49.3296 60.8687 48.4309 61.5251 47.7682C62.1815 47.1056 63.0717 46.7333 64 46.7333H67.5V43.2C67.5 40.88 67.0474 38.5827 66.1679 36.4393C65.2884 34.2958 63.9994 32.3483 62.3744 30.7078C60.7493 29.0673 58.8202 27.766 56.697 26.8781C54.5738 25.9903 52.2981 25.5333 50 25.5333Z" fill="white" stroke="white"/>
<defs>
<linearGradient id="paint0_linear_223_23" x1="50" y1="0" x2="50" y2="100" gradientUnits="userSpaceOnUse">
<stop stop-color="#5ECE63"/>
<stop offset="1" stop-color="#58A9CC"/>
</linearGradient>
</defs>
</svg>
