<svg width="100" height="100" viewBox="0 0 100 100" fill="none" xmlns="http://www.w3.org/2000/svg">
<circle cx="50" cy="50" r="50" fill="url(#paint0_linear_301_2)"/>
<path d="M45.6023 60.608V59.9432C45.6193 56.858 45.9091 54.4034 46.4716 52.5795C47.0511 50.7557 47.8693 49.2898 48.9261 48.1818C49.983 47.0568 51.2699 46.0256 52.7869 45.0881C53.8267 44.4403 54.7557 43.733 55.5739 42.9659C56.4091 42.1818 57.0653 41.3125 57.5426 40.358C58.0199 39.3864 58.2585 38.304 58.2585 37.1108C58.2585 35.7642 57.9432 34.5966 57.3125 33.608C56.6818 32.6193 55.8295 31.8523 54.7557 31.3068C53.6989 30.7614 52.5142 30.4886 51.2017 30.4886C49.9915 30.4886 48.8409 30.7528 47.75 31.2812C46.6761 31.7926 45.7813 32.5767 45.0653 33.6335C44.3665 34.6733 43.9744 35.9943 43.8892 37.5966H34.7869C34.8722 34.358 35.6563 31.6477 37.1392 29.4659C38.6392 27.2841 40.6165 25.6477 43.071 24.5568C45.5426 23.4659 48.2699 22.9205 51.2528 22.9205C54.5085 22.9205 57.3722 23.4915 59.8438 24.6335C62.3324 25.7756 64.267 27.4034 65.6477 29.517C67.0455 31.6136 67.7443 34.1023 67.7443 36.983C67.7443 38.9261 67.429 40.6648 66.7983 42.1989C66.1847 43.733 65.3068 45.0966 64.1648 46.2898C63.0227 47.483 61.6676 48.5483 60.0994 49.4858C58.7188 50.3381 57.5852 51.2244 56.6989 52.1449C55.8295 53.0653 55.1818 54.1477 54.7557 55.392C54.3466 56.6193 54.1335 58.1364 54.1165 59.9432V60.608H45.6023ZM50.0511 76.5625C48.517 76.5625 47.196 76.017 46.0881 74.9261C44.9801 73.8352 44.4261 72.5057 44.4261 70.9375C44.4261 69.4034 44.9801 68.0909 46.0881 67C47.196 65.9091 48.517 65.3636 50.0511 65.3636C51.5682 65.3636 52.8807 65.9091 53.9886 67C55.1136 68.0909 55.6761 69.4034 55.6761 70.9375C55.6761 71.9773 55.4119 72.9233 54.8835 73.7756C54.3722 74.6278 53.6903 75.3097 52.8381 75.821C52.0028 76.3153 51.0739 76.5625 50.0511 76.5625Z" fill="white"/>
<defs>
<linearGradient id="paint0_linear_301_2" x1="50" y1="0" x2="50" y2="100" gradientUnits="userSpaceOnUse">
<stop stop-color="#39A437"/>
<stop offset="1" stop-color="#3BABB3"/>
</linearGradient>
</defs>
</svg>
